<svg width="942" height="172" viewBox="0 0 942 172" fill="none" xmlns="http://www.w3.org/2000/svg">
<g clip-path="url(#clip0_3_43)">
<path d="M202.467 144.48L186.868 171.5H28.123L43.7217 144.48H202.467ZM91.5049 35.3379L16.1758 165.821L0.576172 138.802L75.9053 8.31836L91.5049 35.3379ZM114.763 75.623L98.5234 103.751L98.0898 104.501H98.9561L131.433 104.5L147.031 131.519H51.2949L99.1631 48.6045L114.763 75.623ZM120.161 0.5L195.49 130.982H164.293L88.9629 0.5H120.161Z" fill="black" stroke="white"/>
<path d="M891.539 49.48V79.3677H924.592V49.48H941.5V128.333H924.592V93.8824H891.539V128.333H874.516V49.48H891.539Z" fill="black" stroke="white"/>
<path d="M818.026 48.1114C827.825 48.1114 835.845 50.5974 842.127 55.5333L842.13 55.5352C848.268 60.285 852.094 67.0069 853.595 75.7442H834.858C834.026 71.9472 832.129 68.965 829.158 66.8301H829.159C826.163 64.6222 822.324 63.5382 817.685 63.5381C813.65 63.5381 810.022 64.5082 806.823 66.4581C803.606 68.3413 801.108 71.2 799.321 75.0049C797.532 78.7432 796.652 83.4614 796.652 89.1348C796.652 94.6582 797.495 99.3339 799.204 103.143L799.209 103.154C800.996 106.882 803.492 109.735 806.699 111.692L806.708 111.697C809.911 113.572 813.575 114.503 817.685 114.503C822.313 114.503 826.143 113.538 829.137 111.568L829.14 111.567C832.107 109.589 834.012 106.833 834.852 103.323H853.589C852.085 111.448 848.266 117.83 842.133 122.503C835.85 127.29 827.829 129.702 818.026 129.702C809.809 129.702 802.83 127.969 797.067 124.527H797.068C791.296 121.003 786.873 116.207 783.797 110.132C780.796 104.051 779.286 97.0556 779.286 89.1348C779.286 81.2124 780.758 74.177 783.686 68.0176L783.685 68.0167C786.686 61.7904 791.072 56.9222 796.841 53.3995C802.602 49.8832 809.655 48.1114 818.026 48.1114Z" fill="black" stroke="white"/>
<path d="M739.945 49.48L768.667 128.333H750.691L745.218 112.131L745.103 111.792H714.73L714.614 112.128L709.026 128.333H691.387L719.999 49.48H739.945ZM729.325 68.6704L719.63 97.7603L719.41 98.4185H740.539L740.311 97.7554L730.273 68.6656L729.792 67.272L729.325 68.6704Z" fill="black" stroke="white"/>
<path d="M639.206 48.1114C644.621 48.1114 649.809 49.0514 654.769 50.9307C659.73 52.8096 664.123 55.5139 667.953 59.044L667.957 59.0479C671.857 62.5736 674.935 66.8507 677.19 71.8858C679.439 76.9081 680.568 82.5786 680.568 88.9063C680.568 95.2342 679.439 100.905 677.19 105.928C674.935 110.963 671.857 115.24 667.957 118.766L667.953 118.769C664.123 122.299 659.73 125.004 654.769 126.883C649.809 128.762 644.621 129.702 639.206 129.702C633.79 129.702 628.602 128.762 623.642 126.883H623.643C618.758 125.004 614.364 122.301 610.456 118.769H610.457C606.871 115.463 603.973 111.497 601.766 106.863L601.335 105.928C599.161 100.905 598.07 95.2342 598.07 88.9063C598.07 82.5787 599.161 76.9082 601.335 71.8858C603.59 66.8503 606.629 62.573 610.453 59.0479C614.361 55.5151 618.755 52.8087 623.64 50.9297L623.641 50.9307C628.601 49.0515 633.789 48.1114 639.206 48.1114ZM639.206 63.4239C635.47 63.4239 631.78 64.3586 628.144 66.2149C624.555 68.0096 621.562 70.8149 619.164 74.6085L619.162 74.6104C616.817 78.3622 615.664 83.1388 615.664 88.9063C615.664 94.6001 616.818 99.3746 619.16 103.199L619.162 103.202C621.485 106.921 624.439 109.725 628.023 111.595L628.027 111.597C631.666 113.455 635.393 114.389 639.206 114.389C643.017 114.389 646.745 113.455 650.384 111.597C654.044 109.727 657.038 106.924 659.362 103.202L659.361 103.201C661.781 99.376 662.976 94.6015 662.976 88.9063C662.976 83.3162 661.856 78.6567 659.582 74.959L659.358 74.6046C657.109 71.0477 654.303 68.3612 650.942 66.5616L650.261 66.213C646.627 64.3581 642.94 63.4239 639.206 63.4239Z" fill="black" stroke="white"/>
<path d="M552.622 49.48C558.038 49.48 562.796 50.4201 566.901 52.2867C571.004 54.1521 574.199 56.831 576.501 60.3208L576.503 60.3247C578.797 63.7283 579.954 67.81 579.954 72.5933C579.954 77.8212 578.537 82.1547 575.731 85.6265C572.914 89.1106 569.014 91.6073 563.999 93.104L563.373 93.2906L563.717 93.8462L585.033 128.333H565.455L546.552 96.0689L546.406 95.8208H539.688V128.333H522.666V49.48H552.622ZM539.688 81.5357H552.28C555.124 81.5357 557.327 81.1149 558.812 80.2066L558.819 80.2036C560.333 79.2482 561.401 78.0708 561.98 76.6626C562.535 75.3147 562.818 73.957 562.818 72.5933C562.818 71.2293 562.534 69.9061 561.976 68.6284C561.429 67.3082 560.454 66.2248 559.083 65.3706L558.803 65.2027C557.317 64.2983 555.117 63.8804 552.28 63.8804H539.688V81.5357Z" fill="black" stroke="white"/>
<path d="M474.964 49.48C480.379 49.48 485.251 50.4571 489.589 52.4019H489.59C493.921 54.3438 497.305 57.1379 499.759 60.7808L499.763 60.7867C502.283 64.4179 503.552 68.7639 503.552 73.8482C503.552 78.8575 502.321 83.2084 499.871 86.9195L499.869 86.9214C497.491 90.5625 494.144 93.3939 489.811 95.4117L489.808 95.4136C485.552 97.4295 480.608 98.4449 474.964 98.4449H460.776V128.333H443.754V49.48H474.964ZM460.776 84.0445H474.508C478.814 84.0445 481.931 83.0879 483.674 81.0142C485.421 78.9471 486.302 76.5522 486.302 73.8482C486.302 71.2909 485.418 69.0103 483.674 67.024C481.931 64.8747 478.814 63.8804 474.508 63.8804H460.776V84.0445Z" fill="black" stroke="white"/>
<path d="M396.052 49.48C401.467 49.48 406.338 50.4571 410.675 52.4019H410.676C414.739 54.2225 417.966 56.7923 420.374 60.1079L420.845 60.7808L420.849 60.7867C423.369 64.418 424.64 68.7641 424.64 73.8482C424.64 78.8574 423.407 83.2083 420.957 86.9195L420.955 86.9224C418.579 90.5631 415.232 93.3939 410.897 95.4117L410.894 95.4136C406.638 97.4296 401.696 98.4449 396.052 98.4449H381.865V128.333H364.84V49.48H396.052ZM381.865 84.0445H395.596C399.899 84.0445 403.018 83.0883 404.759 81.0152L404.76 81.0161C406.51 78.9486 407.388 76.5524 407.388 73.8482C407.388 71.2912 406.506 69.0106 404.76 67.024C403.019 64.8745 399.9 63.8804 395.596 63.8804H381.865V84.0445Z" fill="black" stroke="white"/>
<path d="M318.091 49.48L346.813 128.333H328.837L323.364 112.131L323.249 111.792H292.876L292.76 112.128L287.172 128.333H269.535L298.145 49.48H318.091ZM307.471 68.6704L297.776 97.7603L297.556 98.4185H318.685L318.457 97.7554L308.419 68.6656L307.938 67.272L307.471 68.6704Z" fill="black" stroke="white"/>
</g>
<defs>
<clipPath id="clip0_3_43">
<rect width="942" height="172" fill="white"/>
</clipPath>
</defs>
</svg>
